Let The Music Play The Story Of The Doobie Brothers Avi


'Let the Music Play' is the authorised story of The Doobie Brothers, from their beginnings as a biker band in California in 1970, to their breakthrough with 'Listen to the Music' in 1972, their line-up changes in the mid-seventies, and their change of musical direction and furhter success with Michael McDonald in 1976. Worn out by non-stop touring and internal disagreements, the band broke up after a 'farewell' concert in 1982. There was sporadic reunions in the 80s before the band reformed permanently in the early 90s, and have continued touring and recording ever since. The new film features contributions from all the surviving key band members, their manager Bruce Cohn and long term producer Ted Templeman, to tell the full story of the band's highs and lows through four decades of musical evolution.


General 
Let The Music Play The Story Of The Doobie Brothers Avi.avi 
Format : AVI 
Format/Info : Audio Video Interleave 
File size : 918 MiB 
Duration : 1h 39mn 
Overall bit rate : 1 287 Kbps 
Writing application : Lavf52.94.0 

Video 
ID : 0 
Format : AVC 
Format/Info : Advanced Video Codec 
Format profile : Main@L3.1 
Format settings, CABAC : Yes 
Format settings, ReFrames : 2 frames 
Format settings, GOP : M=2, N=3 
Codec ID : H264 
Duration : 1h 39mn 
Bit rate : 1 059 Kbps 
Width : 1 280 pixels 
Height : 720 pixels 
Display aspect ratio : 16:9 
Frame rate mode : Variable 
Frame rate : 23.976 fps 
Color space : YUV 
Chroma subsampling : 4:2:0 
Bit depth : 8 bits 
Scan type : Progressive 
Bits/(Pixel*Frame) : 0.048 
Stream size : 751 MiB (82%) 
Writing library : x264 core 112 r1834 a51816a 
Encoding settings : cabac=1 / ref=1 / deblock=1:0:0 / analyse=0x1:0 / me=dia / subme=2 / psy=1 / psy_rd=0.00:0.00 / mixed_ref=0 / me_range=16 / chroma_me=1 / trellis=0 / 8x8dct=0 / cqm=0 / deadzone=21,11 / fast_pskip=1 / chroma_qp_offset=0 / threads=8 / sliced_threads=0 / nr=0 / decimate=1 / interlaced=0 / constrained_intra=0 / bframes=3 / b_pyramid=0 / b_adapt=1 / b_bias=0 / direct=3 / weightb=0 / open_gop=0 / weightp=2 / keyint=250 / keyint_min=25 / scenecut=40 / intra_refresh=0 / rc_lookahead=40 / rc=abr / mbtree=1 / bitrate=1059 / ratetol=1.0 / qcomp=0.60 / qpmin=10 / qpmax=51 / qpstep=4 / ip_ratio=1.41 / aq=1:1.00 

Audio 
ID : 1 
Format : AC-3 
Format/Info : Audio Coding 3 
Codec ID : 00001000-0000-0020-8000-00AA00389B71 
Duration : 1h 39mn 
Bit rate : 224 Kbps 
Channel(s) : 6 channels 
Channel positions : Front: L C R, Back: L R, LFE 
Sampling rate : 48.0 KHz 
Bit depth : 16 bits 
Compression mode : Lossy 
Stream size : 160 MiB (17%) 
Interleave, duration : 32 ms (0.77 video frame) 
